<svg xmlns="http://www.w3.org/2000/svg" xmlns:xlink="http://www.w3.org/1999/xlink" width="181px" height="181px" viewBox="0 0 100 100" preserveAspectRatio="xMidYMid">
				<g transform="translate(50 50)">  <g transform="translate(-19 -19) scale(0.6)"> <g>
			   <animateTransform attributeName="transform" type="rotate" values="0;36" keyTimes="0;1" dur="0.6578947368421053s" begin="0s" repeatCount="indefinite"></animateTransform><path d="M32.079067400806906 22.17957246419524 L40.564348775045474 30.664853838433807 L30.664853838433814 40.564348775045474 L22.179572464195243 32.079067400806906 A39 39 0 0 1 12.915685094345971 36.799253776995116 L12.915685094345971 36.799253776995116 L14.792898674828741 48.65151386413677 L0.9652619064968159 50.841596374699996 L-0.9119516739859551 38.989336287558345 A39 39 0 0 1 -11.18104993016473 37.3628709076158 L-11.18104993016473 37.3628709076158 L-16.628935927039294 48.05494919787621 L-29.10302726567644 41.699082201522565 L-23.65514126880188 31.00700391126215 A39 39 0 0 1 -31.007003911262146 23.655141268801884 L-31.007003911262146 23.655141268801884 L-41.69908220152256 29.103027265676445 L-48.05494919787621 16.6289359270393 L-37.3628709076158 11.181049930164736 A39 39 0 0 1 -38.989336287558345 0.9119516739859622 L-38.989336287558345 0.9119516739859622 L-50.841596374699996 -0.965261906496807 L-48.65151386413677 -14.792898674828734 L-36.799253776995116 -12.915685094345966 A39 39 0 0 1 -32.079067400806906 -22.179572464195232 L-32.079067400806906 -22.179572464195232 L-40.564348775045474 -30.6648538384338 L-30.664853838433817 -40.564348775045474 L-22.179572464195246 -32.079067400806906 A39 39 0 0 1 -12.915685094345976 -36.799253776995116 L-12.915685094345976 -36.799253776995116 L-14.792898674828749 -48.65151386413677 L-0.9652619064968224 -50.841596374699996 L0.9119516739859503 -38.989336287558345 A39 39 0 0 1 11.181049930164725 -37.3628709076158 L11.181049930164725 -37.3628709076158 L16.628935927039286 -48.05494919787621 L29.103027265676438 -41.699082201522565 L23.655141268801877 -31.00700391126215 A39 39 0 0 1 31.007003911262142 -23.655141268801888 L31.007003911262142 -23.655141268801888 L41.69908220152256 -29.103027265676452 L48.05494919787621 -16.628935927039304 L37.3628709076158 -11.181049930164741 A39 39 0 0 1 38.989336287558345 -0.911951673985967 L38.989336287558345 -0.911951673985967 L50.841596374699996 0.9652619064968004 L48.65151386413677 14.792898674828727 L36.799253776995116 12.91568509434596 A39 39 0 0 1 32.07906740080691 22.179572464195232 M0 -24A24 24 0 1 0 0 24 A24 24 0 1 0 0 -24" fill="#1d3f72"></path></g></g> <g transform="translate(19 19) scale(0.6)"> <g>
			   <animateTransform attributeName="transform" type="rotate" values="36;0" keyTimes="0;1" dur="0.6578947368421053s" begin="-0.32894736842105265s" repeatCount="indefinite"></animateTransform><path d="M-32.079067400806906 -22.179572464195232 L-40.564348775045474 -30.6648538384338 L-30.664853838433817 -40.564348775045474 L-22.179572464195246 -32.079067400806906 A39 39 0 0 1 -12.915685094345976 -36.799253776995116 L-12.915685094345976 -36.799253776995116 L-14.792898674828749 -48.65151386413677 L-0.9652619064968224 -50.841596374699996 L0.9119516739859503 -38.989336287558345 A39 39 0 0 1 11.181049930164725 -37.3628709076158 L11.181049930164725 -37.3628709076158 L16.628935927039286 -48.05494919787621 L29.103027265676438 -41.699082201522565 L23.655141268801877 -31.00700391126215 A39 39 0 0 1 31.007003911262142 -23.655141268801888 L31.007003911262142 -23.655141268801888 L41.69908220152256 -29.103027265676452 L48.05494919787621 -16.628935927039304 L37.3628709076158 -11.181049930164741 A39 39 0 0 1 38.989336287558345 -0.911951673985967 L38.989336287558345 -0.911951673985967 L50.841596374699996 0.9652619064968004 L48.65151386413677 14.792898674828727 L36.799253776995116 12.91568509434596 A39 39 0 0 1 32.07906740080691 22.179572464195232 L32.07906740080691 22.179572464195232 L40.56434877504549 30.6648538384338 L30.66485383843382 40.56434877504547 L22.17957246419525 32.0790674008069 A39 39 0 0 1 12.91568509434598 36.799253776995116 L12.91568509434598 36.799253776995116 L14.792898674828754 48.65151386413677 L0.9652619064968286 50.841596374699996 L-0.9119516739859455 38.989336287558345 A39 39 0 0 1 -11.181049930164722 37.36287090761581 L-11.181049930164722 37.36287090761581 L-16.628935927039286 48.05494919787622 L-29.103027265676495 41.69908220152252 L-23.655141268801927 31.00700391126211 A39 39 0 0 1 -31.007003911262135 23.655141268801895 L-31.007003911262135 23.655141268801895 L-41.69908220152255 29.103027265676452 L-48.05494919787624 16.628935927039237 L-37.36287090761582 11.181049930164681 A39 39 0 0 1 -38.989336287558345 0.9119516739859719 L-38.989336287558345 0.9119516739859719 L-50.841596374699996 -0.9652619064968053 L-48.651513864136746 -14.792898674828798 L-36.799253776995094 -12.91568509434602 A39 39 0 0 1 -32.07906740080691 -22.17957246419523 M0 -24A24 24 0 1 0 0 24 A24 24 0 1 0 0 -24" fill="#5699d2"></path></g></g></g>
			   </svg>